<?xml version="1.0" encoding="UTF-8" standalone="no"?>
<!-- Created with Inkscape (http://www.inkscape.org/) -->

<svg
   xmlns:dc="http://purl.org/dc/elements/1.1/"
   xmlns:cc="http://creativecommons.org/ns#"
   xmlns:rdf="http://www.w3.org/1999/02/22-rdf-syntax-ns#"
   xmlns:svg="http://www.w3.org/2000/svg"
   xmlns="http://www.w3.org/2000/svg"
   version="1.1"
   width="202.30237"
   height="203.24918"
   id="svg3055">
  <metadata
     id="metadata3061">
    <rdf:RDF>
      <cc:Work
         rdf:about="">
        <dc:format>image/svg+xml</dc:format>
        <dc:type
           rdf:resource="http://purl.org/dc/dcmitype/StillImage" />
        <dc:title></dc:title>
      </cc:Work>
    </rdf:RDF>
  </metadata>
  <defs
     id="defs3059" />
  <path
     d="m 82.48353,162.46163 9e-5,-40.78751 12.28012,0 c 10.26692,0 12.28011,-0.0802 12.28011,-0.48911 0,-0.26902 0.1579,-2.04525 0.3509,-3.94718 1.00186,-9.87327 2.04092,-25.202063 1.74571,-25.753672 -0.17755,-0.331752 -0.60351,-0.724537 -0.94657,-0.872849 -0.34306,-0.148316 -6.28381,-0.343591 -13.20165,-0.433944 l -12.5779,-0.16428 0.15332,-10.220859 c 0.18158,-12.104594 0.26956,-12.521538 2.95008,-13.98084 2.48826,-1.354633 6.98142,-1.98167 16.17456,-2.257228 l 7.80757,-0.234024 0,-15.602102 0,-15.602104 -14.29756,0.183693 c -15.39341,0.197773 -19.90455,0.57314 -26.25846,2.184942 -5.80567,1.472729 -10.10599,3.810908 -14.12534,7.680259 -6.24067,6.00777 -9.08828,12.585735 -10.19355,23.547077 -0.19458,1.929732 -0.46438,8.205746 -0.59955,13.946698 l -0.24577,10.438094 -9.42216,0 -9.42217,0 0.0913,15.700999 0.0913,15.701 9.38552,0.0935 9.38551,0.0934 0,40.69406 0,40.69407 -11.49068,-0.0115 c -6.31987,-0.006 -13.89287,-0.15132 -16.8289,-0.32222 -4.85934,-0.28284 -5.50457,-0.39929 -7.19263,-1.2981 -2.2068,-1.17502 -5.84376,-4.71851 -6.70434,-6.53205 C 1.3349,194.19864 0.88586,192.54735 0.67453,191.24031 0.40615,189.58046 0.24652,161.87413 0.14514,99.357537 L 0,9.8512124 1.94917,7.0216096 c 4.2141,-6.11760248 4.57222,-6.19411888 31.76482,-6.78684907 21.67113,-0.4723759 149.2458,-0.1713126 155.50238,0.36696999 2.25838,0.1942991 4.65734,0.58357498 5.33102,0.86505738 1.4298,0.5974055 5.51864,4.5670766 6.33979,6.1550138 1.396,2.6995583 1.41519,3.9726843 1.41519,93.8778483 0,66.86924 -0.099,87.37804 -0.43354,89.79538 -0.51571,3.72667 -1.28432,5.07695 -4.21865,7.41127 -2.74903,2.18691 -4.25039,2.91368 -6.83248,3.30743 -2.65152,0.40434 -48.39297,1.03834 -83.16,1.15265 l -25.17432,0.0828 1e-4,-40.78752 0,0 z"
     id="path3081"
     style="fill:#a1a1a1;fill-opacity:1;stroke:none" />
</svg>
