<?xml version="1.0" encoding="UTF-8" standalone="no"?>
<!-- Created with Inkscape (http://www.inkscape.org/) -->

<svg
   xmlns:dc="http://purl.org/dc/elements/1.1/"
   xmlns:cc="http://creativecommons.org/ns#"
   xmlns:rdf="http://www.w3.org/1999/02/22-rdf-syntax-ns#"
   xmlns:svg="http://www.w3.org/2000/svg"
   xmlns="http://www.w3.org/2000/svg"
   version="1.1"
   width="202.30237"
   height="203.24918"
   id="svg3055">
  <metadata
     id="metadata3061">
    <rdf:RDF>
      <cc:Work
         rdf:about="">
        <dc:format>image/svg+xml</dc:format>
        <dc:type
           rdf:resource="http://purl.org/dc/dcmitype/StillImage" />
        <dc:title></dc:title>
      </cc:Work>
    </rdf:RDF>
  </metadata>
  <defs
     id="defs3059" />
  <path
     d="m 83.250013,162.75915 3.86e-4,-40.26228 10.55001,-0.0118 c 5.802504,-0.007 11.360741,-0.22943 12.351641,-0.49547 1.68381,-0.45206 1.87461,-1.46682 2.91743,-15.51538 0.6137,-8.267427 0.90554,-15.241957 0.64854,-15.498947 -0.257,-0.25699 -6.31734,-0.69209 -13.467437,-0.96689 l -13.000184,-0.49958 0.08585,-9.127425 c 0.04722,-5.02008 0.354209,-10.096298 0.682207,-11.280483 0.813563,-2.93724 4.657804,-4.066467 16.365524,-4.807296 l 9.5644,-0.605207 0,-15.938846 0,-15.938845 -17.439806,0.507062 c -24.364897,0.70841 -32.36217,3.202816 -39.954918,12.462226 -5.776583,7.044584 -7.160752,12.017444 -8.256987,29.664613 l -0.952026,15.325701 -9.347786,0 -9.347786,0 0.23431,16.147977 0.234309,16.14797 9.258172,0.24444 9.258172,0.24445 0,40.06902 0,40.06902 -16.648405,-0.26648 -16.648406,-0.26649 -3.1606816,-2.41289 C 1.1934322,195.17977 1.6195012,201.91017 0.94706719,101.34335 L 0.33702019,10.10696 3.6844892,6.3927189 c 3.1058892,-3.446192 3.7851452,-3.773934 9.4121368,-4.541381 3.644032,-0.496998 41.021587,-0.733241 93.645824,-0.591886 l 87.58117,0.235255 3.67262,3.672645 3.67264,3.672645 0.25976,90.6315261 c 0.18136,63.277047 -0.022,91.599457 -0.67371,93.838497 -0.57711,1.98271 -2.10894,4.10354 -4.01265,5.55556 -2.89139,2.20537 -3.82199,2.38852 -15.25895,3.00304 -6.69889,0.35994 -31.65442,0.76658 -55.45675,0.90363 l -43.276952,0.24918 3.85e-4,-40.26228 0,0 z"
     id="path3051"
     style="fill:#ffffff;fill-opacity:0.94117647;stroke:none" />
</svg>
