<?xml version="1.0" encoding="UTF-8" standalone="no"?>
<!-- Created with Inkscape (http://www.inkscape.org/) -->

<svg
   xmlns:dc="http://purl.org/dc/elements/1.1/"
   xmlns:cc="http://creativecommons.org/ns#"
   xmlns:rdf="http://www.w3.org/1999/02/22-rdf-syntax-ns#"
   xmlns:svg="http://www.w3.org/2000/svg"
   xmlns="http://www.w3.org/2000/svg"
   version="1.1"
   width="202.18875"
   height="202.45172"
   id="svg3994">
  <metadata
     id="metadata4000">
    <rdf:RDF>
      <cc:Work
         rdf:about="">
        <dc:format>image/svg+xml</dc:format>
        <dc:type
           rdf:resource="http://purl.org/dc/dcmitype/StillImage" />
        <dc:title></dc:title>
      </cc:Work>
    </rdf:RDF>
  </metadata>
  <defs
     id="defs3998" />
  <path
     d="M 20.07494,202.24688 9.183922,201.89985 6.738535,200.17944 C 5.393572,199.23321 3.532364,197.37656 2.60252,196.05355 1.0609,193.8601 0.8752,193.08526 0.49562,187.2626 0.26667,183.75059 0.0615,142.4194 0.0397,95.415514 L 0,9.9538881 1.69366,7.3145581 c 2.27864,-3.55096 3.838834,-4.90006 6.544976,-5.65945 5.188511,-1.45599 31.007141,-1.83977 106.250004,-1.57939 50.51417,0.17481 76.87943,0.46402 78.34439,0.85938 1.27411,0.34385 3.28421,1.63518 4.75239,3.05305 4.81354,4.64857 4.38222,-3.90001 4.57444,90.6628759 0.0968,47.611976 -0.0568,87.561906 -0.35334,91.896376 -0.4705,6.87765 -0.67189,7.86111 -1.95412,9.5422 -2.65562,3.4817 -5.6902,5.09859 -10.53111,5.61122 -5.27873,0.55899 -153.801333,1.03818 -169.2464,0.54606 l 0,0 z M 60.132397,161.7684 c 3.05975,-0.53284 4.11429,-1.03268 6.16319,-2.92128 3.4213,-3.15365 6.66159,-9.78949 6.60521,-13.52691 -0.0578,-3.83384 -2.37655,-8.36658 -5.90082,-11.5352 -8.13435,-7.31349 -20.39179,-5.31693 -25.75062,4.19439 -1.56164,2.77173 -1.76067,3.63885 -1.76067,7.67045 0,3.65554 0.26823,5.09041 1.37005,7.32892 3.92587,7.97602 9.45807,10.49894 19.27366,8.78963 z m 61.455953,-0.0674 c -0.01,-2.6062 -2.42846,-16.39033 -3.61641,-20.60853 -8.08184,-28.69706 -30.240133,-50.200786 -59.400913,-57.646196 -3.53807,-0.90334 -16.92875,-2.85322 -19.59438,-2.85322 -0.55592,0 -0.0818,22.395246 0.50655,23.928536 0.23241,0.60564 1.78144,1.10322 4.93944,1.58665 20.83299,3.18917 35.82753,13.19375 45.21276,30.16662 2.46788,4.46308 4.44021,10.65742 5.79004,18.18439 0.79537,4.43516 1.47879,6.75948 2.12929,7.24175 1.37557,1.01982 24.037383,1.01982 24.033623,0 z m 41.47989,-1.21821 c 0,-7.89741 -2.70496,-24.65982 -5.43024,-33.65078 -13.18972,-43.514126 -50.88237,-77.041232 -95.422043,-84.876632 -6.02667,-1.06021 -22.86382,-2.60835 -23.32728,-2.1449 -0.12442,0.12443 -0.065,5.60061 0.1321,12.16928 l 0.35834,11.943026 7.44115,0.69609 c 14.94307,1.39786 23.34148,3.88529 37.55478,11.12297 10.77351,5.48606 17.368883,10.05513 24.026073,16.64453 12.92564,12.793986 22.33911,29.201676 26.84734,46.794896 1.08494,4.23395 2.75449,15.63602 2.80206,19.13646 0.01,0.71733 0.6453,1.93182 1.41235,2.69887 1.38557,1.38558 1.46668,1.39463 12.5,1.39463 l 11.10537,0 0,-1.92844 z"
     id="path4020"
     style="fill:#a1a1a1;fill-opacity:1;stroke:none" />
</svg>
