<?xml version="1.0" encoding="UTF-8" standalone="no"?>
<!-- Created with Inkscape (http://www.inkscape.org/) -->

<svg
   xmlns:dc="http://purl.org/dc/elements/1.1/"
   xmlns:cc="http://creativecommons.org/ns#"
   xmlns:rdf="http://www.w3.org/1999/02/22-rdf-syntax-ns#"
   xmlns:svg="http://www.w3.org/2000/svg"
   xmlns="http://www.w3.org/2000/svg"
   version="1.1"
   width="202.18875"
   height="202.45172"
   id="svg3994">
  <metadata
     id="metadata4000">
    <rdf:RDF>
      <cc:Work
         rdf:about="">
        <dc:format>image/svg+xml</dc:format>
        <dc:type
           rdf:resource="http://purl.org/dc/dcmitype/StillImage" />
        <dc:title></dc:title>
      </cc:Work>
    </rdf:RDF>
  </metadata>
  <defs
     id="defs3998" />
  <path
     d="m 7.5569495,197.51911 c -1.719017,-1.76931 -3.486698,-4.182 -3.92818,-5.36154 -0.464538,-1.24114 -1.064486,-40.0906 -1.42412,-92.218474 L 1.5832245,9.8652316 4.2716925,6.1872596 c 1.478657,-2.022885 3.737159,-4.146055 5.018892,-4.718155 C 11.069298,0.67517856 33.264751,0.42892356 103.04417,0.42892356 l 91.42317,0 3.1367,2.14461504 c 1.72519,1.179539 3.62721,3.302708 4.22671,4.718155 0.85853,2.027051 1.08999,22.0092554 1.08999,94.1009364 l 0,91.5274 -2.88004,2.97149 c -1.76854,1.8247 -4.31542,3.33292 -6.59927,3.908 -2.56963,0.64704 -31.38935,0.93651 -93.2391,0.93651 l -89.519895,0 -3.1254855,-3.21692 z M 65.841389,159.80666 c 1.547034,-0.71126 3.910298,-3.07292 5.403459,-5.39981 4.829244,-7.52573 4.533619,-13.82127 -0.941076,-20.04085 -6.947147,-7.89238 -18.03081,-8.26306 -24.90748,-0.83302 -3.467393,3.74642 -4.180759,5.73319 -4.165475,11.60111 0.02194,8.4229 4.344233,14.60191 11.243236,16.07298 3.820568,0.81465 9.94496,0.17304 13.367336,-1.40041 l 0,0 z m 57.333721,1.29138 c 0.91447,-0.91447 -2.05762,-17.47815 -4.40028,-24.52318 C 108.17123,104.68699 80.758652,83.249006 46.578244,80.113576 l -6.219385,-0.57052 0,12.14657 c 0,14.100574 -1.24904,12.484124 12.009848,15.542584 22.903001,5.2831 38.697841,21.09234 43.708881,43.74874 1.986214,8.9803 2.546568,10.16114 5.023192,10.58533 3.48233,0.59644 21.3895,0.21659 22.07433,-0.46824 z m 41.7144,-4.97001 c -0.4832,-9.42141 -3.43677,-24.6781 -6.61791,-34.18477 C 145.54888,83.921956 113.27208,53.720736 73.814863,42.917576 67.310199,41.136636 49.568259,38.603086 43.601397,38.603086 l -3.242538,0 0,12.43877 c 0,9.51549 0.257296,12.43877 1.094812,12.43877 2.898243,0 16.248879,1.88861 21.209191,3.0003 7.037935,1.57732 12.977904,3.85862 22.57187,8.66893 11.057644,5.54418 16.071108,8.97749 23.567308,16.13933 14.98129,14.313044 25.39819,33.654374 28.92784,53.711114 0.70343,3.99708 1.27948,8.53956 1.28012,10.09441 7.8e-4,1.86588 0.7258,3.55162 2.13253,4.95835 2.07662,2.07662 2.41258,2.12518 13.08216,1.89116 l 10.9508,-0.24019 -0.28598,-5.576 z"
     id="path3887"
     style="fill:#ffffff;fill-opacity:1;stroke:none" />
</svg>
