<?xml version="1.0" encoding="UTF-8" standalone="no"?>
<!-- Created with Inkscape (http://www.inkscape.org/) -->

<svg
   xmlns:dc="http://purl.org/dc/elements/1.1/"
   xmlns:cc="http://creativecommons.org/ns#"
   xmlns:rdf="http://www.w3.org/1999/02/22-rdf-syntax-ns#"
   xmlns:svg="http://www.w3.org/2000/svg"
   xmlns="http://www.w3.org/2000/svg"
   version="1.1"
   width="202.31793"
   height="202.23448"
   id="svg4622">
  <metadata
     id="metadata4628">
    <rdf:RDF>
      <cc:Work
         rdf:about="">
        <dc:format>image/svg+xml</dc:format>
        <dc:type
           rdf:resource="http://purl.org/dc/dcmitype/StillImage" />
        <dc:title></dc:title>
      </cc:Work>
    </rdf:RDF>
  </metadata>
  <defs
     id="defs4626" />
  <path
     d="M 7.4658,200.12533 C 5.832886,198.96526 3.605852,196.8436 2.516836,195.41054 0.576463,192.85713 0.53143,190.97894 0.268403,101.63675 L 0,10.468564 2.094147,7.0801658 C 3.245928,5.2165458 5.153368,3.1683398 6.332903,2.5285968 10.205058,0.42846284 59.596948,-0.49227916 128.07515,0.25913084 l 65.99785,0.724193 3.59989,3.60009996 3.59989,3.6001 0.73968,46.4035002 c 0.40682,25.52193 0.40743,67.243916 9.9e-4,92.715536 l -0.73832,46.31204 -3.2057,3.49801 c -2.71931,2.96729 -4.0926,3.6085 -9.05121,4.22621 -3.21503,0.40051 -44.71165,0.76589 -92.214682,0.81196 l -86.368804,0.0837 -2.968934,-2.1092 z m 139.19067,-29.23919 c 6.86083,-4.37622 9.96813,-12.02885 8.15708,-20.08919 -1.24289,-5.53171 -4.05447,-9.25811 -9.19887,-12.19201 -3.92995,-2.24129 -5.23793,-2.38018 -26.95986,-2.86285 -20.500342,-0.45552 -23.173392,-0.70981 -26.199842,-2.49245 -1.85366,-1.09184 -4.22013,-3.12546 -5.25882,-4.51915 -2.00504,-2.69031 -3.72523,-12.02032 -3.75827,-20.38425 l -0.02,-5.05165 28.772092,-0.62894 c 25.99016,-0.56814 29.14516,-0.81929 32.63056,-2.5974 7.5606,-3.857126 11.88805,-12.061486 10.5474,-19.996716 -0.84101,-4.97789 -5.71684,-11.63589 -9.75773,-13.32428 -2.27901,-0.95223 -11.65522,-1.54184 -32.69386,-2.05591 l -29.498462,-0.72077 -0.0218,-10.52323 c -0.0267,-12.90279 -1.71363,-17.45306 -8.01664,-21.6242 -5.85793,-3.87659 -14.83022,-4.00066 -20.06307,-0.27743 -6.34536,4.51479 -7.78651,7.22911 -8.84209,16.65352 -1.24125,11.08211 -0.3469,78.617796 1.11602,84.274436 2.67961,10.36126 9.57974,20.6962 18.95358,28.38846 6.40507,5.25606 17.30922,10.72361 23.21217,11.63902 2.79213,0.433 16.019882,0.70414 29.395012,0.60254 22.63248,-0.17192 24.53936,-0.32567 27.50536,-2.21755 l 0,0 z"
     id="path4648"
     style="fill:#a1a1a1;fill-opacity:1;stroke:none" />
</svg>
