<?xml version="1.0" encoding="UTF-8" standalone="no"?>
<!-- Created with Inkscape (http://www.inkscape.org/) -->

<svg
   xmlns:dc="http://purl.org/dc/elements/1.1/"
   xmlns:cc="http://creativecommons.org/ns#"
   xmlns:rdf="http://www.w3.org/1999/02/22-rdf-syntax-ns#"
   xmlns:svg="http://www.w3.org/2000/svg"
   xmlns="http://www.w3.org/2000/svg"
   version="1.1"
   width="202.31793"
   height="202.23448"
   id="svg4622">
  <metadata
     id="metadata4628">
    <rdf:RDF>
      <cc:Work
         rdf:about="">
        <dc:format>image/svg+xml</dc:format>
        <dc:type
           rdf:resource="http://purl.org/dc/dcmitype/StillImage" />
        <dc:title></dc:title>
      </cc:Work>
    </rdf:RDF>
  </metadata>
  <defs
     id="defs4626" />
  <path
     d="M 6.9353789,197.97069 2.3554248,193.60202 1.6078199,102.37798 0.86021516,11.153945 3.5061316,7.3082373 C 4.9613857,5.1930983 6.8402742,3.1954843 7.6814394,2.8690953 11.959528,1.2091116 48.473446,0.5449271 118.70333,0.8496183 l 76.07238,0.3300389 3.62171,3.6217091 3.62171,3.62171 0,92.6333437 0,92.63336 -3.62582,3.21763 c -2.268,2.01267 -4.83526,3.4087 -6.85541,3.72783 -1.77627,0.28061 -43.008,0.77883 -91.626078,1.10716 l -88.396489,0.59696 -4.5799541,-4.36867 z M 146.6619,171.67079 c 3.08282,-1.61587 7.51062,-6.40092 8.60222,-9.2963 1.42427,-3.77777 1.06175,-11.73729 -0.71251,-15.64372 -1.89265,-4.16709 -7.08195,-8.6783 -11.23189,-9.76421 -1.64958,-0.43165 -12.8026,-1.19572 -24.78448,-1.69793 -20.947032,-0.87799 -21.927741,-0.99663 -25.488773,-3.08354 -2.036938,-1.19372 -4.237206,-3.21586 -4.889481,-4.49363 -1.841225,-3.60689 -3.108224,-10.79622 -3.108224,-17.63702 l 0,-6.23172 28.492788,-0.85923 c 31.13609,-0.93894 32.16885,-1.11245 37.32719,-6.270778 4.23751,-4.23752 5.64149,-7.538292 5.69004,-13.377316 0.0361,-4.343589 -0.3866,-5.900974 -2.55416,-9.41002 -3.31456,-5.365931 -6.83247,-7.710245 -12.55442,-8.366204 C 138.94361,65.25182 127.25236,64.7946 115.46963,64.523128 103.6869,64.251656 92.070197,63.830423 89.654738,63.587054 l -4.391745,-0.442488 -0.591972,-9.592137 c -0.717739,-11.629954 -1.559792,-15.135017 -4.465682,-18.58847 -3.485905,-4.142763 -8.320637,-6.19552 -14.507855,-6.159826 -8.596742,0.0496 -15.30621,4.89425 -17.567197,12.684612 -1.543473,5.318128 -1.628809,80.613835 -0.101203,89.295605 3.526883,20.04417 25.483387,40.23654 45.894361,42.2069 11.030985,1.06486 50.051575,0.0879 52.738455,-1.32046 l 0,0 z"
     id="path4531"
     style="fill:#ffffff;fill-opacity:0.94117647;stroke:none" />
</svg>
